:SAMPLES-PER-SECOND 30
:FULLY-SPECIFIED
:DEGREES
445
root  -67.2514 34.898 29.6764 -166.679 52.2311 179.402
RightUpLeg  -15.4284 -12.6773 1.96864
RightLeg  12.433 -3.23905 -0.497275
RightFoot  -0.68622 0.00341035 0.166925
RightToes  -17.0671 -0.0639407 -0.15178
Spine  -1.23533 -0.53729 -0.505456
Spine1  -2.50584 -1.09329 -0.407235
HEad  -61.3373 -0.0882338 6.14253
LeftShoulder1  -1.94126e-019 -3.10601e-018 -2.51263e-017
LeftArm  -11.1738 20.7912 -78.7576
LeftForeArm  35.6395 -14.2889 -2.53149
LeftHand  -0.432573 -0.827252 8.20402
RightShoulder  -4.96962e-017 0 -2.36833e-017
RightArm  -30.6473 -26.9279 75.195
RightForeArm  54.9114 17.1946 1.09838
RightHand  -0.425254 -0.194833 -9.53047
LeftUpLeg  -11.7637 -7.96109 -2.7202
LeftLeg  11.4128 23.4385 3.08942
LeftFoot  0.840856 -0.00244056 0.494209
LeftToes  -15.6781 1.34695e-006 1.12385e-007
446
root  -67.2064 34.9344 29.5913 -166.875 51.4786 179.309
RightUpLeg  -14.7033 -13.1727 1.86245
RightLeg  11.6618 -3.48197 -0.486565
RightFoot  -0.346234 0.00532279 0.151944
RightToes  -17.1567 -0.0639305 -0.151987
Spine  -1.30126 -0.356279 -0.452253
Spine1  -2.63071 -0.740503 -0.288754
HEad  -61.1508 -0.704154 6.22507
LeftShoulder1  -1.94126e-019 -3.10601e-018 -2.51263e-017
LeftArm  -10.287 19.6975 -79.7791
LeftForeArm  35.4475 -17.5045 -3.07009
LeftHand  -0.424598 -1.02975 7.81716
RightShoulder  -4.96962e-017 0 -2.36833e-017
RightArm  -32.1278 -28.0266 75.1696
RightForeArm  55.0408 18.3267 1.28899
RightHand  -0.450238 0.175431 -9.4515
LeftUpLeg  -11.1508 -9.18079 -2.58651
LeftLeg  10.7715 23.1018 2.79241
LeftFoot  0.996241 -0.00341818 0.554772
LeftToes  -14.2156 1.34695e-006 1.12385e-007
447
root  -67.1526 34.9548 29.5318 -167.146 50.098 179.039
RightUpLeg  -14.0075 -13.3618 1.72017
RightLeg  10.9791 -4.67698 -0.596608
RightFoot  -0.1967 0.00593881 0.153123
RightToes  -17.1333 -0.0639282 -0.152127
Spine  -1.44827 -0.466007 -0.432707
Spine1  -2.91748 -0.962288 -0.246685
HEad  -60.7627 -1.05903 6.38628
LeftShoulder1  -1.94126e-019 -3.10601e-018 -2.51263e-017
LeftArm  -8.57936 18.823 -80.5651
LeftForeArm  33.8438 -20.9756 -3.57515
LeftHand  -0.405402 -0.912228 7.5987
RightShoulder  -4.96962e-017 0 -2.36833e-017
RightArm  -32.987 -28.6496 74.9007
RightForeArm  53.9679 18.6787 1.39348
RightHand  -0.449992 -0.053607 -9.83009
LeftUpLeg  -10.6403 -11.7044 -2.54381
LeftLeg  9.96961 24.3648 2.60137
LeftFoot  1.2367 -0.00569117 0.688925
LeftToes  -14.2333 1.34695e-006 1.12385e-007
448
root  -67.0473 34.9478 29.4322 -167.652 49.3618 178.833
RightUpLeg  -13.3106 -14.0151 1.52775
RightLeg  10.9414 -4.76798 -0.605003
RightFoot  -0.43249 0.00514288 0.172256
RightToes  -17.2253 -0.0639227 -0.152178
Spine  -1.52788 -0.428739 -0.43502
Spine1  -3.07382 -0.891917 -0.262677
HEad  -60.2997 -1.64734 6.32021
LeftShoulder1  -1.94126e-019 -3.10601e-018 -2.51263e-017
LeftArm  -6.57716 18.3944 -81.2366
LeftForeArm  31.8981 -24.613 -4.00552
LeftHand  -0.398242 -0.946779 7.4286
RightShoulder  -4.96962e-017 0 -2.36833e-017
RightArm  -32.9671 -28.7162 74.1703
RightForeArm  53.0935 18.3655 1.37131
RightHand  -0.442346 -0.430001 -10.3596
LeftUpLeg  -9.43103 -14.1417 -2.54643
LeftLeg  8.86758 25.3121 2.22098
LeftFoot  2.37377 -0.0225445 1.24973
LeftToes  -18.2785 1.34695e-006 1.12385e-007
449
root  -66.9654 34.9401 29.364 -168.076 48.4548 178.514
RightUpLeg  -12.7254 -14.1878 1.28406
RightLeg  10.7549 -5.49315 -0.678645
RightFoot  -0.644717 0.00361646 0.199753
RightToes  -17.0485 -0.0639035 -0.152123
Spine  -1.66213 -0.490327 -0.492806
Spine1  -3.34033 -1.01435 -0.395928
HEad  -60.1664 -1.8737 6.45383
LeftShoulder1  -1.94126e-019 -3.10601e-018 -2.51263e-017
LeftArm  -4.38736 18.1447 -81.6204
LeftForeArm  30.0948 -28.1496 -4.49814
LeftHand  -0.377119 -0.971806 7.01487
RightShoulder  -4.96962e-017 0 -2.36833e-017
RightArm  -32.5133 -28.4766 73.4144
RightForeArm  52.9178 17.8019 1.27715
RightHand  -0.421614 -0.786151 -10.6008
LeftUpLeg  -8.51578 -16.6215 -2.65177
LeftLeg  7.70838 26.6685 1.80862
LeftFoot  3.44621 -0.0509104 1.85382
LeftToes  -22.2399 1.34695e-006 1.12385e-007
450
root  -66.8916 34.9317 29.3043 -168.512 47.9232 178.289
RightUpLeg  -12.4154 -14.9616 1.10076
RightLeg  11.1186 -5.26355 -0.684304
RightFoot  -0.986046 0.00205435 0.22583
RightToes  -17.1161 -0.0638598 -0.151942
Spine  -1.682 -0.440073 -0.58448
Spine1  -3.37933 -0.91037 -0.602108
HEad  -60.4236 -2.33895 6.84424
LeftShoulder1  -1.94126e-019 -3.10601e-018 -2.51263e-017
LeftArm  -1.94664 17.5391 -81.7605
LeftForeArm  29.2079 -31.1389 -5.16306
LeftHand  -0.370358 -0.961228 6.9017
RightShoulder  -4.96962e-017 0 -2.36833e-017
RightArm  -31.7574 -27.8376 72.7422
RightForeArm  53.1017 16.9778 1.13899
RightHand  -0.43628 -0.932572 -11.3168
LeftUpLeg  -7.55194 -18.17 -2.73636
LeftLeg  6.80484 26.9856 1.41737
LeftFoot  2.5708 -0.0284029 1.42739
LeftToes  -14.2042 1.34695e-006 1.12385e-007
451
root  -66.8223 34.9469 29.2948 -168.737 47.1131 178.057
RightUpLeg  -12.0851 -15.5545 1.03931
RightLeg  10.9425 -5.49252 -0.696833
RightFoot  -1.08166 0.000632854 0.248114
RightToes  -17.1108 -0.0637807 -0.151615
Spine  -1.73674 -0.443786 -0.54877
Spine1  -3.48898 -0.903313 -0.509776
HEad  -60.6774 -3.11063 6.45941
LeftShoulder1  -1.94126e-019 -3.10601e-018 -2.51263e-017
LeftArm  -0.292307 16.9865 -82.3738
LeftForeArm  29.2652 -32.8978 -5.5848
LeftHand  -0.346291 -1.01183 6.41346
RightShoulder  -4.96962e-017 0 -2.36833e-017
RightArm  -31.7093 -27.0933 71.983
RightForeArm  53.3397 16.2431 1.10104
RightHand  -0.397748 -1.4718 -11.67
LeftUpLeg  -7.05473 -18.8904 -2.71508
LeftLeg  6.08977 26.394 1.07016
LeftFoot  2.70274 -0.0295412 1.46426
LeftToes  -13.0737 1.34695e-006 1.12385e-007
452
root  -66.7769 34.931 29.2722 -168.954 46.9588 177.996
RightUpLeg  -12.057 -15.5153 0.950336
RightLeg  11.4802 -5.64242 -0.76965
RightFoot  -1.44352 -0.00199589 0.286009
RightToes  -16.9214 -0.0636555 -0.151123
Spine  -1.70028 -0.375905 -0.741011
Spine1  -3.42102 -0.74959 -0.930138
HEad  -61.0251 -3.23543 7.02467
LeftShoulder1  -1.94126e-019 -3.10601e-018 -2.51263e-017
LeftArm  1.11161 16.4588 -82.2926
LeftForeArm  29.8717 -34.6484 -5.99754
LeftHand  -0.359454 -1.37084 6.32845
RightShoulder  -4.96962e-017 0 -2.36833e-017
RightArm  -31.0064 -26.1598 72.0012
RightForeArm  53.1456 15.7563 1.12319
RightHand  -0.382248 -1.66066 -11.756
LeftUpLeg  -6.75827 -20.5809 -2.78035
LeftLeg  6.2015 27.7115 1.1715
LeftFoot  2.9405 -0.0386612 1.66505
LeftToes  -14.8606 1.34695e-006 1.12385e-007
453
root  -66.6799 34.9505 29.2401 -169.702 46.7849 177.571
RightUpLeg  -11.2493 -15.8117 0.581341
RightLeg  11.1375 -5.54103 -0.722138
RightFoot  -1.58003 -0.00350042 0.306348
RightToes  -17.1188 -0.0634735 -0.150446
Spine  -1.47987 -0.259938 -0.803348
Spine1  -2.98587 -0.505429 -1.02829
HEad  -61.7024 -3.93847 6.78291
LeftShoulder1  -1.94126e-019 -3.10601e-018 -2.51263e-017
LeftArm  3.00927 15.4361 -82.614
LeftForeArm  29.4268 -34.5515 -5.9947
LeftHand  -0.359882 -1.42656 6.28851
RightShoulder  -4.96962e-017 0 -2.36833e-017
RightArm  -31.124 -25.05 71.9657
RightForeArm  53.5935 15.5287 1.12686
RightHand  -0.381209 -1.79494 -12.1471
LeftUpLeg  -5.92846 -21.997 -3.08651
LeftLeg  5.92669 28.2885 1.06354
LeftFoot  3.17031 -0.0462968 1.83448
LeftToes  -14.9224 1.34695e-006 1.12385e-007
454
root  -66.5851 34.9266 29.2877 -169.731 46.6382 177.594
RightUpLeg  -11.2091 -15.9602 0.737506
RightLeg  11.356 -5.51162 -0.7397
RightFoot  -1.99331 -0.00653748 0.347235
RightToes  -17.0436 -0.0632237 -0.149565
Spine  -1.44424 -0.280048 -0.990421
Spine1  -2.92524 -0.520731 -1.42309
HEad  -62.0176 -3.91148 7.38574
LeftShoulder1  -1.94126e-019 -3.10601e-018 -2.51263e-017
LeftArm  3.55184 15.1833 -82.3373
LeftForeArm  29.9332 -34.8689 -6.05062
LeftHand  -0.346377 -1.4976 6.00107
RightShoulder  -4.96962e-017 0 -2.36833e-017
RightArm  -30.1002 -24.3942 72.8076
RightForeArm  53.0304 16.0227 1.1147
RightHand  -0.368338 -1.88736 -12.0286
LeftUpLeg  -5.98471 -22.84 -2.85175
LeftLeg  6.52318 28.3878 1.35092
LeftFoot  3.3693 -0.0526366 1.95115
LeftToes  -19.5675 1.34695e-006 1.12385e-007
455
root  -66.4764 34.9286 29.3053 -169.859 46.9799 177.54
RightUpLeg  -10.9658 -16.0001 0.780361
RightLeg  11.1825 -5.18445 -0.679926
RightFoot  -2.12045 -0.00733193 0.35488
RightToes  -16.8584 -0.0628956 -0.148461
Spine  -1.34335 -0.162867 -0.996489
Spine1  -2.7315 -0.275242 -1.40586
HEad  -62.4814 -4.06911 7.04931
LeftShoulder1  -1.94126e-019 -3.10601e-018 -2.51263e-017
LeftArm  3.67589 15.0594 -82.6599
LeftForeArm  29.9467 -33.6831 -5.74183
LeftHand  -0.347896 -1.41507 6.09316
RightShoulder  -4.96962e-017 0 -2.36833e-017
RightArm  -29.258 -23.4938 73.2726
RightForeArm  52.817 16.6323 1.12418
RightHand  -0.376335 -1.77528 -11.9257
LeftUpLeg  -5.61553 -23.6246 -2.883
LeftLeg  6.35456 29.3544 1.31013
LeftFoot  4.33143 -0.0911366 2.57504
LeftToes  -26.3661 1.34695e-006 1.12385e-007
